<svg version="1.2" xmlns="http://www.w3.org/2000/svg" viewBox="0 0 24 24" width="24" height="24">
	<title>credly-svg</title>
	<style>
		.s0 { fill: #000000 } 
	</style>
	<path id="Layer" fill-rule="evenodd" class="s0" d="m23.8 13.2q0.1 0 0.1 0 0 0 0 0 0 0.1 0 0.1 0.1 0 0.1 0.1 0 0 0 0 0 0.1 0 0.1 0 0.1 0 0.1 0 0 0 0.1 0 0-0.1 0.1 0 0 0 0 0 0.1 0 0.1-0.1 0.2-0.2 0.4-0.2 0.2-0.3 0.4-0.3 0.3-0.6 0.6-0.4 0.3-0.9 0.4 0 0.1 0 0.1c-0.2 0.8-0.8 1.6-1.7 1.9q-0.7 0.3-1.3 0.3c-0.4 0-0.9-0.2-1.1-0.5q-0.2-0.3-0.3-0.6 0-0.1 0-0.2 0-0.1 0-0.2 0 0 0-0.1 0-0.1 0-0.2c0.2-0.4 0.6-0.8 1.1-1q0.4-0.2 1-0.2h0.2q0.3 0.1 0.6 0.1h0.1q0.1 0 0.1 0 0 0 0.1 0 0 0 0.1 0 0 0 0 0c0.1 0.1 0.2 0 0.3 0q0-0.1 0.1-0.2 0-0.4 0-0.7 0-0.2 0-0.4c0 0 0-0.2-0.1-0.1-0.1 0.1-0.1 0.2-0.2 0.3q-0.2 0.3-0.5 0.3-0.3 0.1-0.5-0.1c-0.2-0.1-0.2-0.2-0.3-0.3 0-0.1-0.1-0.2-0.2-0.2-0.1 0-0.2 0.1-0.3 0.2-0.3 0.3-0.7 0.5-1.1 0.5-0.5 0-0.9-0.2-1.1-0.6q0-0.1 0-0.1-0.1-0.1-0.1 0-0.1 0-0.1 0 0 0 0 0 0 0 0 0 0 0-0.1 0.1-0.2 0.3-0.5 0.6c-0.2 0.2-0.4 0.3-0.7 0.3-0.3 0-0.5-0.1-0.6-0.4-0.1-0.1-0.1-0.2-0.2-0.2-0.1-0.1-0.2 0-0.3 0q0 0.1-0.1 0.2-0.1 0.1-0.2 0.2-0.1 0-0.3 0.1-0.1 0-0.2 0-0.2 0.1-0.3 0c-0.4 0-0.7-0.3-0.8-0.6q0 0 0 0 0-0.1 0-0.1-0.1 0-0.1 0 0 0 0 0 0-0.1-0.1-0.1 0 0-0.1 0.1c-0.2 0.2-0.4 0.4-0.7 0.5-0.2 0.2-0.5 0.3-0.7 0.3h-0.1c-0.6 0-1.1-0.4-1.3-0.9q-0.1-0.1-0.1-0.1 0 0 0 0 0 0-0.1 0 0-0.1 0-0.1 0 0 0 0c-0.1 0-0.1 0.1-0.2 0.2q-0.1 0.1-0.2 0.2-0.1 0.1-0.4 0.2c-0.2 0.1-0.4 0.2-0.7 0.2q-0.1-0.1-0.1-0.1-0.1 0-0.2 0 0-0.1-0.1-0.1 0-0.1-0.1-0.1-0.2-0.2-0.2-0.5c-0.1-0.4 0-0.8 0.1-1.2q0.1-0.2 0.1-0.3v-0.1c0-0.1 0.1-0.2 0-0.3q0-0.1-0.1-0.1c-0.1-0.1-0.2-0.1-0.2 0-0.1 0-0.2 0.1-0.2 0.2q0 0.1-0.1 0.1 0 0.1 0 0.1 0 0.1-0.1 0.1 0 0.1 0 0.1-0.2 0.4-0.4 0.7-0.4 0.5-0.9 0.9-0.1 0.1-0.2 0.2-0.1 0.1-0.3 0.2-0.1 0.1-0.2 0.1-0.2 0.1-0.3 0.2-0.1 0.1-0.3 0.1-0.1 0.1-0.3 0.1-0.1 0-0.3 0-0.1 0.1-0.3 0.1-0.6 0-1.2-0.2-0.5-0.3-0.9-0.8-0.4-0.4-0.6-1.1-0.1-0.5-0.2-1.2 0-0.5 0-1c0.1-1 0.5-2 1-2.8 0.4-0.5 0.9-1 1.5-1.3 0.7-0.2 1.4-0.2 2 0.1 0.2 0.1 0.3 0.2 0.5 0.1 0.2 0 0.3-0.3 0.4-0.4q0-0.1 0.1-0.1 0.1 0 0.1-0.1 0.1 0 0.2 0 0.1 0 0.1 0 0.1 0.1 0.2 0.1 0 0 0.1 0.1 0 0 0 0.1 0.1 0.1 0.1 0.2c0 0.2-0.1 0.5-0.3 0.7q-0.1 0.2-0.2 0.4-0.1 0.2-0.1 0.4-0.1 0.2-0.2 0.4-0.1 0.2-0.1 0.4c-0.1 0.3-0.1 0.5-0.3 0.7-0.1 0.3-0.4 0.4-0.6 0.3-0.2 0-0.4-0.3-0.4-0.6 0-0.2 0.1-0.5 0.2-0.7 0.1-0.3 0.1-0.5 0-0.8-0.1-0.3-0.5-0.4-0.9-0.4-0.9 0.1-1.4 0.9-1.7 1.6q-0.1 0.3-0.2 0.6-0.1 0.4-0.2 0.7 0 0.3 0 0.6-0.1 0.3 0 0.7c0 0.4 0.1 0.8 0.3 1.2 0.4 0.7 1.2 0.9 1.9 0.8 0.4-0.1 0.9-0.4 1.3-0.7q0-0.1 0.1-0.2 0.1-0.1 0.2-0.2 0.1-0.1 0.2-0.2 0.1-0.1 0.2-0.2 0-0.1 0.1-0.2c0.1-0.2 0.3-0.5 0.3-0.7 0.1-0.2 0-0.4 0-0.5q0-0.1 0-0.1 0-0.1 0-0.2 0 0 0.1-0.1 0 0 0-0.1 0-0.1 0.1-0.1 0-0.1 0.1-0.1 0 0 0.1-0.1 0 0 0.1 0 0-0.1 0.1-0.1 0 0 0.1 0 0.1 0 0.1 0 0.1 0.1 0.1 0.1 0.1 0 0.1 0.1 0.1 0 0.1 0.1 0 0 0 0.1 0 0 0 0.1 0 0 0 0.1 0 0 0 0 0 0.1 0 0.1 0 0 0 0 0 0.1 0 0.1 0 0 0 0.1 0 0 0 0 0 0 0.1 0 0 0 0 0 0.1 0 0.2 0c0.2 0 0.3 0 0.5 0.1q0 0 0.1 0.1 0 0 0.1 0 0 0.1 0.1 0.1 0 0.1 0.1 0.1 0 0.1 0 0.1 0 0.1 0 0.2 0.1 0 0.1 0.1 0 0.1 0 0.1 0 0.1-0.1 0.1 0 0.1 0 0.1 0 0.1 0 0.1 0 0 0 0.1c-0.2 0.5-0.3 0.8-0.2 1q0 0.1 0.1 0.1 0.2 0 0.4-0.2c0.3-0.3 0.5-0.8 0.6-1.3v-0.1q0.3-1.2 1.1-1.6c0.4-0.1 0.7-0.1 1 0q0.1 0 0.1 0.1 0.1 0 0.2 0 0 0.1 0 0.1 0.1 0.1 0.1 0.1 0.1 0.1 0.1 0.1 0 0.1 0 0.2 0.1 0 0.1 0.1 0 0.1 0 0.1 0.1 0.5-0.1 1.1-0.1 0.2-0.2 0.4-0.2 0.1-0.4 0.3-0.1 0.1-0.3 0.2-0.3 0.1-0.5 0.1c-0.1 0-0.2 0-0.2 0.1q-0.1 0 0 0.1 0 0.1 0 0.2 0 0 0 0.1 0 0.1 0.1 0.1 0 0.1 0.1 0.2c0.1 0.1 0.3 0.2 0.5 0.2q0.1-0.1 0.1-0.1 0.1 0 0.2 0 0-0.1 0.1-0.1 0.1-0.1 0.1-0.1 0.1 0 0.1-0.1 0.1 0 0.1-0.1 0.1 0 0.1-0.1 0.1-0.1 0.1-0.1 0.1-0.1 0.1-0.1 0-0.1 0.1-0.1 0-0.1 0.1-0.1 0-0.1 0-0.2 0.2-0.3 0.2-0.5 0.1-0.1 0.1-0.1c0.1-0.3 0.2-0.6 0.4-0.9 0.3-0.4 0.8-0.7 1.3-0.7 0.1 0 0.3 0 0.4-0.1q0 0 0 0 0 0 0 0 0 0 0 0 0 0 0 0 0-0.2 0-0.3 0-0.1 0.1-0.3 0-0.1 0-0.2 0 0 0-0.1 0-0.1 0-0.2 0 0 0-0.1 0.1-0.6 0.2-1.2v-0.1c0.1-0.3 0.2-0.6 0.3-0.9q0.1-0.3 0.3-0.5c0-0.1 0.2-0.3 0.3-0.3 0.2 0 0.4 0 0.5 0.1 0.3 0.4 0.2 0.8 0.2 1.2-0.1 0.6-0.2 1.1-0.3 1.6-0.1 0.5-0.4 2.4-0.5 2.9-0.1 0.4-0.2 0.8-0.1 1.3 0 0.1 0.1 0.2 0.2 0.3q0.1 0 0.2-0.1 0.1 0 0.1 0 0-0.1 0-0.1 0.1 0 0.1 0 0-0.1 0-0.1 0.2-0.4 0.4-0.8 0.2-0.4 0.3-0.8c0.1-0.2 0.2-1.5 0.3-1.9q0.1-0.6 0.2-1.2 0-0.2 0-0.4 0.1-0.1 0.1-0.3 0-0.1 0.1-0.3 0-0.2 0.1-0.3 0-0.1 0-0.2 0-0.1 0.1-0.1 0-0.1 0-0.2 0.1 0 0.1-0.1 0-0.1 0.1-0.1 0-0.1 0.1-0.2 0 0 0.1-0.1 0.1 0 0.1 0 0.1-0.1 0.2-0.1 0.1 0 0.2 0 0 0 0.1 0 0.1 0.1 0.1 0.1c0.3 0.2 0.3 0.5 0.3 0.7q0 0.6-0.1 1.2-0.1 0.6-0.3 1.2c-0.2 0.4-0.8 2-0.8 2.4q-0.1 0.3-0.1 0.6 0 0.1 0 0.2 0 0.1 0 0.2 0 0 0 0.1 0 0.1 0.1 0.2 0 0 0 0 0 0.1 0 0.1 0 0.1 0 0.1 0 0 0.1 0.1 0 0 0 0 0 0.1 0.1 0.1 0 0 0 0.1 0.1 0 0.1 0 0.2 0 0.4-0.1 0-0.1 0.1-0.2 0.1-0.1 0.2-0.2 0.1 0 0.1-0.1 0.1-0.1 0.2-0.2 0.2-0.5 0.3-1c0-0.5 0.1-1 0.3-1.4 0-0.2 0.1-0.4 0.3-0.4 0.2-0.1 0.4 0 0.5 0.1 0.2 0.2 0.2 0.4 0.2 0.5q-0.1 0.2-0.1 0.4-0.1 0.2-0.2 0.4 0 0.2 0 0.4-0.1 0.2-0.1 0.4 0 0.2 0 0.4 0 0 0 0.1 0 0 0 0.1 0 0 0.1 0 0 0.1 0 0.1 0 0.1 0 0.1 0 0 0.1 0.1 0 0 0 0 0.1 0 0.1 0 0 0 0.1 0 0 0 0 0 0.1 0 0.1 0 0 0 0.1 0 0 0 0-0.1 0 0 0.1 0 0 0 0 0 0-0.1 0-0.1 0.1 0 0.1-0.1 0 0 0.1 0 0-0.1 0-0.1 0-0.1 0.1-0.1c0.2-0.6 0.3-1.2 0.4-1.8 0.1-0.3 0.2-0.6 0.4-0.8q0 0 0 0 0.1 0 0.1 0 0 0 0.1 0 0 0 0 0 0.1 0 0.1 0 0 0 0.1 0 0 0 0 0 0 0.1 0.1 0.1c0.1 0.1 0.1 0.4 0.1 0.5l-0.2 1.8q-0.1 0.4-0.1 0.8 0 0.2-0.1 0.5 0 0.5-0.1 1.1 0 0.1 0 0.1 0.1 0 0.1 0 0.3-0.2 0.5-0.5 0.2-0.2 0.3-0.5 0.1-0.2 0.3-0.4 0-0.1 0.1-0.1 0 0 0 0 0.1-0.1 0.1-0.1 0 0 0 0 0.1 0 0.1 0 0 0 0 0 0 0 0.1 0 0 0 0 0 0 0 0 0.1 0 0 0 0zm-13.7-1.6q0 0.1 0 0.1 0 0.1 0 0.1 0 0 0 0.1 0 0.1 0.1 0.1 0.1 0 0.2 0 0.1-0.1 0.1-0.2 0.1 0 0.1-0.1 0.1 0 0.1-0.1 0.1 0 0.1-0.1 0 0 0.1-0.1c0-0.1 0.1-0.4 0.1-0.5-0.1-0.1-0.1-0.2-0.2-0.3q-0.1 0-0.1 0 0 0 0 0-0.1 0-0.1 0.1 0 0 0 0-0.1 0-0.2 0.1 0 0.1 0 0.1-0.1 0.1-0.1 0.2 0 0-0.1 0.1 0 0.1 0 0.1 0 0.1-0.1 0.2 0 0.1 0 0.1zm4.3-0.3q0 0 0 0 0 0 0 0 0 0 0 0 0-0.1 0-0.2-0.1 0-0.1 0 0 0 0 0-0.1 0-0.1 0 0 0 0 0-0.1 0-0.2 0-0.1 0-0.1 0-0.1 0.1-0.2 0.1 0 0.1-0.1 0.1-0.3 0.3-0.4 0.6 0 0.1-0.1 0.3 0 0.1 0 0.3 0 0.1 0 0.2 0 0.2 0 0.3 0.1 0.1 0.1 0.1 0 0 0 0.1 0 0 0 0 0 0.1 0 0.1c0.1 0.1 0.2 0.2 0.3 0.2q0 0 0.1 0 0 0 0 0 0.1 0 0.1 0 0 0 0.1 0 0-0.1 0-0.1 0.1 0 0.2-0.1 0.1 0 0.2-0.1 0-0.1 0.1-0.2 0.1-0.1 0.1-0.2c0-0.2 0-0.3 0-0.5q0-0.1 0-0.2 0 0 0-0.1 0-0.1 0-0.2 0-0.1 0-0.2 0-0.1 0-0.3 0 0 0 0zm6.4 4.6q-0.1 0-0.1 0-0.1 0-0.2 0-0.2 0-0.3 0-0.2 0-0.4 0c-0.4-0.1-0.7 0-1 0.1q-0.1 0-0.2 0.1 0 0-0.1 0.1 0 0-0.1 0.1 0 0 0 0.1 0 0-0.1 0.1 0 0 0 0 0 0.1 0 0.1 0 0.1 0 0.1 0 0 0 0.1 0.1 0 0.1 0 0 0.1 0 0.1 0.1 0 0.1 0.1 0 0 0.1 0 0.1 0.1 0.1 0.1 0.1 0 0.2 0 0 0 0.1 0 0.1 0 0.2 0 0 0 0.1 0 0 0 0.1 0 0.1 0 0.1 0 0.4-0.2 0.8-0.4 0-0.1 0.1-0.1 0 0 0.1-0.1 0 0 0 0 0.1-0.1 0.1-0.1 0.1-0.1 0.2-0.3c0 0 0-0.1 0.1-0.1q0-0.1-0.1-0.1z"/>
</svg>