<svg version="1.2" xmlns="http://www.w3.org/2000/svg" viewBox="0 0 24 24" width="24" height="24">
	<title>pluralsight-svg</title>
	<style>
		.s0 { fill: #000000 } 
	</style>
	<path id="Layer" fill-rule="evenodd" class="s0" d="m15.7 1.8c-5.6-2.1-11.9 0.8-13.9 6.5-2.1 5.6 0.8 11.9 6.5 14 5.6 2 11.9-0.9 14-6.5 2-5.7-0.9-12-6.6-14zm-3.7 22.2c-6.6 0-12-5.4-12-12 0-6.6 5.4-12 12-12 6.7 0 12 5.4 12 12 0 6.6-5.3 12-12 12zm7.7-12l-10.7 6.2v-2.8l1-0.6c0 1 0 1.6 0 1.6l7.7-4.4-7.7-4.4c0 0 0 0.6 0 1.6l-1-0.6v-2.8zm-10.8-3.4v1.2l-1.4-0.8v6.1l1.4-0.9v1.2l-2.5 1.4v-9.6zm1.1 6.2q0-0.6 0-1.2l2.8-1.6-2.8-1.6q0-0.7 0-1.2l4.9 2.8zm-1.1-5.1v4.5l1.1-0.6c0-1 0-2.2 0-3.3z"/>
</svg>