<svg height="32" viewBox="0 0 32 32" width="32" xmlns="http://www.w3.org/2000/svg"><path d="m20.959 2.339c-7.521-2.74-15.876 1.161-18.599 8.661-2.761 7.599 1.14 15.943 8.661 18.683 7.541 2.739 15.943-1.161 18.676-8.683 2.745-7.563-1.156-15.917-8.697-18.661zm-4.959 29.661c-8.803 0-16-7.197-16-16s7.197-16 16-16 16 7.197 16 16-7.197 16-16 16zm-4.099-24.26v16.52l14.339-8.26zm1.402 2.359 10.197 5.901-10.197 5.901v-11.803zm-4.704-.558v12.917l11.204-6.459zm1.401 2.396 7.083 4.063-7.083 4.083v-8.165z"/></svg>